<svg xmlns="http://www.w3.org/2000/svg" xmlns:xlink="http://www.w3.org/1999/xlink"><symbol id="logo" viewBox="0 0 141.7 50.5"><style>.st0{fill:#020200}</style><path class="st0" d="M123.4 39.2c.2-1.4.4-2.9.6-4.3h14c-.4 1.4-.7 2.9-1.1 4.3h-13.5z"/><path d="M35.3 11.4c.2-1.4.4-2.9.6-4.3h14c-.4 1.4-.7 2.9-1.1 4.3H35.3zm-16 28.3l-2.8-8.2-1.5-5.1h-.1l-2.5 13.3H7.5l4.6-23.6h4.3l2.3 7.5c0 .2.1.6.3 1.2.2.6.4 1.3.7 2 .2.7.5 1.4.6 2 .2.6.3 1.1.3 1.3h.1l2.6-14h4.8l-4.6 23.6h-4.2zm9.6 0l4.6-23.6h13.6l-.9 4.6h-8.7l-1 4.9H44l-.8 4.4h-7.5l-1 5.1h8.7l-.9 4.6H28.9zm29.6-19.1l-3.7 19.2h-4.9l3.7-19.2h-5l.8-4.5h14.8l-.9 4.5h-4.8z" fill="#aecb3f"/><path class="st0" d="M74.4 15.9c1 0 1.9.2 2.8.5.8.3 1.5.7 2.1 1.3.6.5 1.1 1.2 1.4 1.9.3.7.5 1.5.6 2.4l-4.7 1.3c0-.3-.1-.7-.3-1-.1-.3-.3-.6-.5-.8-.2-.2-.5-.5-.8-.6-.3-.2-.7-.2-1-.2-.6 0-1 .1-1.4.4-.4.2-.7.6-.9 1-.2.4-.4.9-.6 1.4s-.3 1.1-.4 1.6l-1.5 7.7c-.1.3-.1.7-.1 1s.1.6.3.8c.2.2.4.4.7.6.3.1.7.2 1.3.2.8 0 1.4-.2 2-.7.5-.5 1-1.1 1.2-2l2.4.6 2.4.6c-.2.8-.6 1.6-1.1 2.3s-1 1.4-1.7 1.9c-.7.6-1.4 1-2.3 1.3s-1.9.5-3 .5c-1.5 0-2.8-.2-3.8-.7s-1.7-1.1-2.2-1.8c-.5-.8-.8-1.7-.9-2.7s0-2.1.2-3.2l1.3-6.4c.2-1.2.5-2.3.9-3.4s.9-2.1 1.6-2.9 1.5-1.5 2.5-2c.8-.6 2-.9 3.5-.9zm7.9 23.8l4.6-23.6h4.9l-3.7 19h8.7l-.9 4.6H82.3zm17.5 0l4.6-23.6h4.9l-4.6 23.6h-4.9zm22.1-23.6c1.9 0 3.5.5 4.7 1.4 1.2 1 1.7 2.4 1.7 4.4 0 1.5-.2 2.8-.6 3.9s-1 2.1-1.8 2.9-1.7 1.4-2.7 1.8c-1.1.4-2.2.6-3.5.6h-3l-1.7 8.6h-4.9l4.6-23.6h7.2zm-3.2 4.5l-1.2 5.9h2.7c.4 0 .8-.1 1.2-.2.4-.1.8-.3 1.1-.6.3-.3.6-.7.8-1.1.2-.5.3-1 .3-1.7 0-.8-.2-1.4-.6-1.7-.4-.4-1-.5-1.8-.5l-2.5-.1z"/></symbol></svg>